# AST/ASF file generated using VICON BodyLanguage
# -----------------------------------------------
:version 1.10
:name VICON
:units
  mass 1.0
  length 0.45
  angle deg
:documentation
   .ast/.asf automatically generated from VICON data using
   VICON BodyBuilder and BodyLanguage model FoxedUp or BRILLIANT.MOD
:root
   order TX TY TZ RX RY RZ
   axis XYZ
   position 0 0 0  
   orientation 0 -0 0 
:bonedata
  begin
     id 1 
     name lhipjoint
     direction 0.432694 -0.693742 0.575759 
     length 2.19277 
     axis 0 -0 0  XYZ
  end
  begin
     id 2 
     name lfemur
     direction 0.34202 -0.939693 0  
     length 6.69022  
     axis 0 -0 20  XYZ
    dof rx ry rz
    limits (-160.0 20.0)
           (-70.0 70.0)
           (-60.0 70.0)
  end
  begin
     id 3 
     name ltibia
     direction 0.34202 -0.939693 0   
     length 6.50337   
     axis 0 -0 20   XYZ
    dof rx
    limits (-10.0 170.0)
  end
  begin
     id 4 
     name lfoot
     direction 0.158999 -0.435969 0.885805   
     length 2.70564   
     axis -90 -1.13533e-015 20   XYZ
    dof rx rz
    limits (-45.0 90.0)
           (-70.0 20.0)
  end
  begin
     id 5 
     name ltoes
     direction -0.00592919 0.00964381 0.999936   
     length 1.29929   
     axis -90 -1.13533e-015 20   XYZ
    dof rx
    limits (-90.0 20.0)
  end
  begin
     id 6 
     name rhipjoint
     direction -0.414359 -0.700339 0.581234   
     length 2.17212  
     axis 0 -0 0  XYZ 
  end
  begin
     id 7 
     name rfemur
     direction -0.34202 -0.939693 0   
     length 7.17659   
     axis 0 -0 -20   XYZ
    dof rx ry rz
    limits (-160.0 20.0)
           (-70.0 70.0)
           (-70.0 60.0)
  end
  begin
     id 8 
     name rtibia
     direction -0.34202 -0.939693 0   
     length 6.36669   
     axis 0 -0 -20   XYZ
    dof rx
    limits (-10.0 170.0)
 end
 begin
     id 9 
     name rfoot
     direction -0.137064 -0.37658 0.916188   
     length 2.22351  
     axis -90 1.13533e-015 -20   XYZ
    dof rx rz
    limits (-45.0 90.0)
           (-20.0 70.0)
  end
  begin
     id 10 
     name rtoes
     direction -0.000784077 -0.00289101 0.999996   
     length 1.09522   
     axis -90 1.13533e-015 -20   XYZ
    dof rx
    limits (-90.0 20.0)
  end
  begin
     id 11 
     name lowerback
     direction -0.0176242 0.984912 -0.172157   
     length 1.65301   
     axis 0 -0 0   XYZ
    dof rx ry rz
    limits (-20.0 45.0)
           (-30.0 30.0)
           (-30.0 30.0)
  end
  begin
     id 12 
     name upperback
     direction -0.00218128 0.998776 -0.0494072   
     length 1.67776   
     axis 0 -0 0   XYZ
    dof rx ry rz
    limits (-20.0 45.0)
           (-30.0 30.0)
           (-30.0 30.0)
  end
  begin
     id 13 
     name thorax
     direction 0.00544186 0.999658 0.0255711   
     length 1.72293   
     axis 0 -0 0   XYZ
    dof rx ry rz
    limits (-20.0 45.0)
           (-30.0 30.0)
           (-30.0 30.0)
  end
  begin
     id 14 
     name lowerneck
     direction -0.105325 0.983841 0.144785   
     length 2.14226   
     axis 0 -0 0   XYZ
    dof rx ry rz
    limits (-20.0 45.0)
           (-30.0 30.0)
           (-30.0 30.0)
  end
  begin
     id 15 
     name upperneck
     direction 0.0547957 0.988053 -0.144041   
     length 2.17508   
     axis 0 -0 0   XYZ
    dof rx ry rz
    limits (-20.0 45.0)
           (-30.0 30.0)
           (-30.0 30.0)
  end
  begin
     id 16
     name head
     direction 0.0247488 0.997534 -0.0656813  
     length 2.20048  
     axis 0 -0 0   XYZ
    dof rx ry rz
    limits (-20.0 45.0)
           (-30.0 30.0)
           (-30.0 30.0)
  end
  begin
     id 17 
     name lclavicle
     direction 0.820559 0.567247 -0.0701026  
     length 4.09615  
     axis 0 -0 0   XYZ
    dof ry rz
    limits (-20.0 10.0)
           (0.0 20.0)
  end
  begin
     id 18 
     name lhumerus
     direction 0.999977 -0.0067566 -9.96392e-005   
     length 4.59333   
     axis -180 -30 -90   XYZ
    dof rx ry rz
    limits (-60.0 90.0)
           (-90.0 90.0)
           (-90.0 90.0)
  end
  begin
     id 19
     name lradius
     direction 1 -4.48982e-011 -2.53425e-027   
     length 2.81151   
     axis -180 -30 -90   XYZ
    dof rx
    limits (-10.0 170.0)
  end
  begin
     id 20
     name lwrist
     direction 1 -4.48939e-011 -7.39254e-028   
     length 1.40576   
     axis 2.56395e-016 90 90   XYZ
    dof ry
    limits (-180.0 0.0)
 end
  begin
     id 21 
     name lhand
     direction 1 -4.48939e-011 -1.47851e-027   
     length 0.895651   
     axis 9.43423e-016 90 90   XYZ
    dof rx rz
    limits (-90.0 90.0)
           (-45.0 45.0)
  end
  begin
     id 22 
     name lfingers
     direction 1 -4.48978e-011 -2.95702e-027   
     length 0.722097   
     axis 1.88685e-015 90 90   XYZ
    dof rx
    limits (0.0 90.0)
  end
  begin
     id 23
     name lthumb
     direction 0.707107 -6.34931e-011 0.707107   
     length 1.03679   
     axis -90 45 -9.86935e-015   XYZ
    dof rx rz
    limits (-45.0 45.0)
           (-45.0 45.0)
  end
  begin
     id 24 
     name rclavicle
     direction -0.831414 0.553102 -0.0531864   
     length 4.24872  
     axis 0 -0 0   XYZ 
    dof ry rz
    limits (-10.0 20.0)
           (-20.0 0.0)
  end
  begin
     id 25 
     name rhumerus
     direction -0.999916 -0.000939607 0.0129331  
     length 4.74834   
     axis -180 30 90   XYZ
    dof rx ry rz
    limits (-90.0 60.0)
           (-90.0 90.0)
           (-90.0 90.0)
  end
  begin
     id 26 
     name rradius
     direction -1 -4.48956e-011 -1.31752e-027   
     length 2.79907   
     axis -180 30 90   XYZ
    dof rx
    limits (-10.0 170.0)
  end
  begin
     id 27 
     name rwrist
     direction -1 -4.4897e-011 -7.39254e-028   
     length 1.39954   
     axis 2.56395e-016 -90 -90   XYZ
    dof ry
    limits (-180.0 0.0)
  end
  begin
     id 28
     name rhand
     direction -0.999997 -0.00250697 0.000800838   
     length 0.953304   
     axis 9.43423e-016 -90 -90   XYZ
    dof rx rz
    limits (-90.0 90.0)
           (-45.0 45.0)
  end
  begin
     id 29
     name rfingers
     direction -1 -4.48954e-011 -2.95702e-027   
     length 0.763342   
     axis 1.88685e-015 -90 -90   XYZ
    dof rx
    limits (0.0 90.0)
  end
  begin
     id 30
     name rthumb
     direction -0.709701 -0.00217037 0.7045   
     length 1.10115   
     axis -90 -45 9.86935e-015   XYZ
    dof rx rz
    limits (-45.0 45.0)
           (-45.0 45.0)
  end
:hierarchy
  begin
    root lhipjoint rhipjoint lowerback
    lhipjoint lfemur
    lfemur ltibia
    ltibia lfoot
    lfoot ltoes
    rhipjoint rfemur
    rfemur rtibia
    rtibia rfoot
    rfoot rtoes
    lowerback upperback
    upperback thorax
    thorax lowerneck lclavicle rclavicle
    lowerneck upperneck
    upperneck head
    lclavicle lhumerus
    lhumerus lradius
    lradius lwrist
    lwrist lhand lthumb
    lhand lfingers
    rclavicle rhumerus
    rhumerus rradius
    rradius rwrist
    rwrist rhand rthumb
    rhand rfingers
  end

#!OML:ASF G:\ViconDB\ViconDB\414\test\team2\shane.ASF
:FULLY-SPECIFIED
:DEGREES
33
root -7.39627 16.6781 -16.7679 -1.85153 -14.7099 -6.79944
lowerback 9.23909 4.54592 6.38399
upperback 3.2658 6.59109 0.540996
thorax -1.09416 3.32151 -3.61781
lowerneck -18.4435 -0.0781357 -1.78272
upperneck 22.0038 -1.38568 7.09012
head 10.1375 0.0593377 2.61588
rclavicle -9.63112e-014 -1.86858e-014
rhumerus -9.02476 16.2545 -98.0406
rradius 38.7654
rwrist 38.1677
rhand -34.4681 -14.0357
rfingers 7.12502
rthumb -7.63141 -43.878
lclavicle -9.63112e-014 -1.86858e-014
lhumerus -47.7979 -0.877241 77.5004
lradius 13.261
lwrist -29.5583
lhand -33.6054 5.8374
lfingers 7.12502
lthumb -6.79867 35.7082
rfemur 30.5365 -15.7638 14.8454
rtibia 5.40694e-014
rfoot -12.1555 5.78701
rtoes -24.4154
lfemur -22.6855 25.2283 -16.8052
ltibia 33.325
lfoot -22.3782 -12.9809
ltoes -15.0093
34
root -7.41479 16.6741 -16.5998 -1.74666 -14.8747 -6.92841
lowerback 9.07354 4.58092 6.31943
upperback 3.15294 6.62411 0.460814
thorax -1.11533 3.33537 -3.65812
lowerneck -18.6445 -0.0411987 -1.73011
upperneck 22.0539 -1.418 7.34266
head 10.1983 0.0833263 2.69612
rclavicle -2.06239e-014 1.15295e-014
rhumerus -8.91709 16.1862 -98.2382
rradius 38.4463
rwrist 38.5851
rhand -34.6647 -13.8209
rfingers 7.12502
rthumb -7.82115 -43.6563
lclavicle -2.06239e-014 1.15295e-014
lhumerus -48.3743 -0.573011 77.1633
lradius 13.6104
lwrist -28.909
lhand -33.3139 6.06615
lfingers 7.12502
lthumb -6.51724 35.9459
rfemur 30.9146 -15.3546 14.8271
rtibia 3.49861e-014
rfoot -11.1847 5.82404
rtoes -25.4462
lfemur -22.048 25.2922 -16.5338
ltibia 33.2618
lfoot -21.7563 -13.2784
ltoes -14.1499
35
root -7.43508 16.6804 -16.4272 -1.6233 -15.0217 -7.10968
lowerback 8.99607 4.61863 6.29276
upperback 2.8763 6.6775 0.365317
thorax -1.34707 3.3486 -3.75503
lowerneck -18.4269 -0.0141306 -1.61081
upperneck 22.015 -1.46184 7.53387
head 10.1478 0.0915267 2.73503
rclavicle 7.50412e-015 1.27222e-014
rhumerus -9.20192 16.4289 -98.5033
rradius 38.1342
rwrist 38.7166
rhand -34.7619 -13.5235
rfingers 7.12502
rthumb -7.91495 -43.3553
lclavicle 7.50412e-015 1.27222e-014
lhumerus -49.0514 0.706092 75.6897
lradius 13.7983
lwrist -29.7554
lhand -33.0287 6.01572
lfingers 7.12502
lthumb -6.24195 35.9038
rfemur 31.2583 -14.9709 14.8748
rtibia -5.40694e-014
rfoot -9.91495 5.8938
rtoes -26.4878
lfemur -21.6787 25.6485 -16.3092
ltibia 33.2227
lfoot -20.4071 -13.3807
ltoes -13.037
36
root -7.4471 16.6897 -16.2513 -1.61044 -14.994 -7.31038
lowerback 8.91646 4.58267 6.37882
upperback 2.69818 6.63943 0.328601
thorax -1.47862 3.3217 -3.84005
lowerneck -18.159 0.0122717 -1.64817
upperneck 21.9124 -1.45023 7.70874
head 10.0616 0.10762 2.79998
rclavicle -3.70733e-014 7.55382e-015
rhumerus -9.5446 16.3382 -98.7383
rradius 37.8094
rwrist 39.0515
rhand -34.7533 -13.3563
rfingers 7.12502
rthumb -7.90666 -43.1884
lclavicle -3.70733e-014 7.55382e-015
lhumerus -49.8471 -0.132888 76.4255
lradius 14.5106
lwrist -27.0379
lhand -32.8198 6.46089
lfingers 7.12502
lthumb -6.04025 36.3548
rfemur 31.7293 -14.7256 14.8424
rtibia 7.63333e-014
rfoot -8.28697 6.05231
rtoes -27.1952
lfemur -21.1451 25.203 -15.8893
ltibia 33.1895
lfoot -19.0053 -12.7131
ltoes -12.4359
37
root -7.46067 16.6949 -16.0718 -1.56589 -15.0569 -7.47567
lowerback 8.85598 4.56246 6.42501
upperback 2.42316 6.62483 0.303386
thorax -1.7254 3.29962 -3.90112
lowerneck -17.945 0.0836805 -1.78053
upperneck 22.0215 -1.39837 8.02923
head 10.0608 0.15586 2.94451
rclavicle 8.11041e-014 -4.77083e-015
rhumerus -10.1625 16.1651 -99.0148
rradius 37.545
rwrist 39.4531
rhand -34.6541 -13.6142
rfingers 7.12502
rthumb -7.81097 -43.4499
lclavicle 8.11041e-014 -4.77083e-015
lhumerus -50.5785 0.166378 76.2422
lradius 14.9024
lwrist -25.9986
lhand -32.846 6.74044
lfingers 7.12502
lthumb -6.06553 36.6336
rfemur 32.1229 -14.4002 14.8125
rtibia 3.49861e-014
rfoot -6.41248 6.22591
rtoes -28.647
lfemur -20.5111 25.1077 -15.5861
ltibia 33.2216
lfoot -18.539 -12.3806
ltoes -11.3141
38
root -7.4715 16.7024 -15.8976 -1.64273 -14.8651 -7.3415
lowerback 8.86494 4.49631 6.11105
upperback 2.25391 6.51546 0.205576
thorax -1.94324 3.23433 -3.83349
lowerneck -17.9035 -0.0282796 -2.09056
upperneck 21.9753 -1.56829 8.44922
head 10.0522 0.0986955 3.12248
rclavicle 7.51406e-014 -3.18055e-015
rhumerus -10.6294 15.9862 -99.2139
rradius 37.1983
rwrist 39.5156
rhand -34.4198 -13.6765
rfingers 7.12502
rthumb -7.58481 -43.5205
lclavicle 7.51406e-014 -3.18055e-015
lhumerus -50.9169 0.246376 76.0667
lradius 14.9651
lwrist -25.2
lhand -32.419 5.94566
lfingers 7.12502
lthumb -5.65325 35.8503
rfemur 32.5045 -14.2798 14.379
rtibia -7.63333e-014
rfoot -4.09443 6.47446
rtoes -28.6724
lfemur -19.7646 24.8545 -15.6143
ltibia 33.2159
lfoot -18.6432 -12.7577
ltoes -11.1555
39
root -7.47427 16.7159 -15.7185 -1.73435 -14.6498 -7.18098
lowerback 8.74237 4.43625 5.93575
upperback 2.14027 6.41393 0.076223
thorax -2.00945 3.18021 -3.85797
lowerneck -17.9081 -0.0470212 -2.23043
upperneck 22.0473 -1.61445 8.66928
head 10.0848 0.0927339 3.22104
rclavicle -3.04141e-014 -2.38542e-015
rhumerus -11.1207 15.3358 -99.3791
rradius 36.7826
rwrist 39.792
rhand -34.0917 -12.8954
rfingers 7.12502
rthumb -7.26811 -42.7506
lclavicle -3.04141e-014 -2.38542e-015
lhumerus -50.9018 1.26363 75.1573
lradius 14.7367
lwrist -25.725
lhand -32.6176 6.65048
lfingers 7.12502
lthumb -5.84499 36.5499
rfemur 28.8888 -14.334 13.7821
rtibia 8.83316
rfoot -6.38674 6.90735
rtoes -30.3414
lfemur -18.9547 24.345 -15.654
ltibia 33.2043
lfoot -18.7696 -13.1531
ltoes -10.2414
40
root -7.47708 16.7318 -15.5469 -1.84517 -14.2089 -6.85685
lowerback 8.57648 4.36021 5.5467
upperback 2.04604 6.27029 -0.0169504
thorax -2.0632 3.10662 -3.71964
lowerneck -17.6843 -0.209272 -2.60803
upperneck 21.8091 -1.78167 8.93169
head 9.97263 0.0051147 3.34703
rclavicle -2.06736e-014 1.03368e-014
rhumerus -11.7587 14.915 -99.272
rradius 36.5062
rwrist 40.122
rhand -33.9578 -13.0773
rfingers 7.12502
rthumb -7.13883 -42.9369
lclavicle -2.06736e-014 1.03368e-014
lhumerus -50.9253 0.83904 75.5984
lradius 14.6623
lwrist -25.2733
lhand -32.7177 6.19519
lfingers 7.12502
lthumb -5.94169 36.0919
rfemur 26.3277 -14.5597 12.9664
rtibia 15.2132
rfoot -6.67607 7.39481
rtoes -30.747
lfemur -18.234 23.9924 -15.9325
ltibia 33.1405
lfoot -18.9514 -13.3966
ltoes -9.55668
41
root -7.47573 16.7479 -15.3771 -1.97009 -13.7483 -6.34236
lowerback 8.40389 4.29735 5.05869
upperback 1.95333 6.13338 -0.209849
thorax -2.10866 3.03763 -3.62914
lowerneck -17.7518 -0.263844 -2.79455
upperneck 21.934 -1.87268 9.16908
head 10.0402 -0.0211858 3.45635
rclavicle -7.96133e-014 -6.36111e-015
rhumerus -12.5149 14.4853 -99.2956
rradius 36.3257
rwrist 39.683
rhand -33.6012 -12.8248
rfingers 7.12502
rthumb -6.79457 -42.6958
lclavicle -7.96133e-014 -6.36111e-015
lhumerus -50.5461 1.61901 74.825
lradius 14.1757
lwrist -26.6376
lhand -32.8196 6.18376
lfingers 7.12502
lthumb -6.04004 36.0777
rfemur 24.242 -15.0299 11.7701
rtibia 20.3877
rfoot -5.91649 8.1599
rtoes -31.0535
lfemur -17.4544 23.5487 -16.4796
ltibia 32.9564
lfoot -19.4161 -13.0833
ltoes -9.68487
42
root -7.47814 16.7622 -15.211 -2.09097 -13.2137 -6.1243
lowerback 8.23396 4.20366 4.77379
upperback 1.95417 5.97488 -0.264433
thorax -2.05279 2.96179 -3.50095
lowerneck -17.8033 -0.393994 -3.10465
upperneck 21.9428 -1.98717 9.25543
head 10.0638 -0.0889171 3.52575
rclavicle -7.70291e-015 3.97569e-015
rhumerus -13.2234 13.4635 -99.2296
rradius 36.0243
rwrist 40.1933
rhand -33.6378 -13.1217
rfingers 7.12502
rthumb -6.82996 -42.9915
lclavicle -7.70291e-015 3.97569e-015
lhumerus -49.9888 1.82631 74.8049
lradius 13.7916
lwrist -27.2226
lhand -32.7442 6.09493
lfingers 7.12502
lthumb -5.96728 35.9909
rfemur 22.3654 -15.4301 10.9877
rtibia 25.1674
rfoot -4.84315 8.68833
rtoes -30.5756
lfemur -16.6746 24.2644 -16.647
ltibia 32.6592
lfoot -19.7475 -14.1976
ltoes -9.70583
43
root -7.48312 16.7827 -15.0474 -2.29041 -12.7075 -5.91191
lowerback 8.11744 4.13343 4.41234
upperback 1.99964 5.84419 -0.294471
thorax -1.98679 2.90068 -3.31014
lowerneck -17.9263 -0.523458 -3.60466
upperneck 21.9337 -2.12005 9.64859
head 10.1023 -0.144111 3.73628
rclavicle 2.6339e-015 1.03368e-014
rhumerus -13.9995 13.2461 -98.9893
rradius 35.9363
rwrist 39.6362
rhand -33.2014 -13.1421
rfingers 7.12502
rthumb -6.40862 -43.0252
lclavicle 2.6339e-015 1.03368e-014
lhumerus -49.3318 2.03885 74.782
lradius 13.4796
lwrist -28.1508
lhand -33.0846 6.16797
lfingers 7.12502
lthumb -6.29593 36.0544
rfemur 20.606 -15.5702 10.3858
rtibia 29.6608
rfoot -3.51745 9.08904
rtoes -28.5229
lfemur -15.6697 24.1704 -16.704
ltibia 32.24
lfoot -19.9736 -14.7254
ltoes -9.41417
44
root -7.48266 16.8018 -14.8877 -2.4384 -12.2367 -5.83991
lowerback 8.06535 4.03454 4.27673
upperback 2.02678 5.69795 -0.330332
thorax -1.95226 2.82977 -3.255
lowerneck -18.0659 -0.590111 -3.49107
upperneck 21.9622 -2.17854 9.3765
head 10.1391 -0.189416 3.61297
rclavicle 3.61788e-014 -1.59028e-015
rhumerus -14.7436 13.0746 -98.8205
rradius 35.7176
rwrist 39.2075
rhand -33.0283 -13.3128
rfingers 7.12502
rthumb -6.24158 -43.2009
lclavicle 3.61788e-014 -1.59028e-015
lhumerus -48.5438 2.72141 74.3823
lradius 13.0728
lwrist -29.6308
lhand -33.0087 5.88701
lfingers 7.12502
lthumb -6.22261 35.7756
rfemur 18.8506 -16.0937 9.76226
rtibia 33.9429
rfoot -2.06254 9.71214
rtoes -27.5272
lfemur -14.7065 24.5724 -16.6485
ltibia 31.7288
lfoot -20.0159 -15.851
ltoes -8.8913
45
root -7.48699 16.8277 -14.7299 -2.54612 -11.6011 -5.75959
lowerback 8.03067 3.94285 4.01755
upperback 2.01155 5.55477 -0.310249
thorax -1.98813 2.75787 -3.07825
lowerneck -18.1075 -0.76536 -3.84718
upperneck 21.9224 -2.34884 9.50557
head 10.1504 -0.282679 3.69639
rclavicle 2.13694e-014 -1.11319e-014
rhumerus -15.5687 12.9574 -98.5439
rradius 35.5486
rwrist 38.2791
rhand -32.7999 -13.4543
rfingers 7.12502
rthumb -6.02108 -43.3487
lclavicle 2.13694e-014 -1.11319e-014
lhumerus -47.779 2.81185 74.5331
lradius 12.9271
lwrist -30.8733
lhand -33.251 6.25595
lfingers 7.12502
lthumb -6.45654 36.1375
rfemur 17.111 -16.3552 9.41859
rtibia 37.9189
rfoot -0.074399 10.2426
rtoes -24.4581
lfemur -13.7039 24.263 -16.588
ltibia 31.0594
lfoot -19.8786 -16.529
ltoes -8.36151
46
root -7.47487 16.847 -14.5788 -2.82505 -11.4149 -5.56364
lowerback 8.26443 3.92574 3.92069
upperback 2.03411 5.53025 -0.414257
thorax -2.09483 2.74352 -3.14811
lowerneck -18.1152 -0.807214 -3.87284
upperneck 21.8755 -2.3663 9.38845
head 10.1348 -0.307065 3.65462
rclavicle -7.98617e-014 1.03368e-014
rhumerus -16.3342 12.725 -98.3155
rradius 35.1816
rwrist 38.082
rhand -32.4908 -13.388
rfingers 7.12502
rthumb -5.72258 -43.2908
lclavicle -7.98617e-014 1.03368e-014
lhumerus -47.0885 1.23168 76.1236
lradius 13.2208
lwrist -29.8307
lhand -33.2772 6.39206
lfingers 7.12502
lthumb -6.48187 36.2729
rfemur 15.3656 -16.4344 8.8107
rtibia 41.6645
rfoot 2.06023 10.7144
rtoes -21.5387
lfemur -12.473 24.2021 -16.6945
ltibia 30.3643
lfoot -20.0319 -16.617
ltoes -8.16782
